# 3ds Max Wavefront OBJ Exporter v0.94b - (c)2007 guruware
# File Created: 16.11.2010 16:15:11

mtllib Aqua Chaos Emerald.mtl

#
# object Object01
#

v  26.7314 -14.6698 26.7314
v  0.0000 -48.4784 0.0000
v  37.8039 -14.6698 -0.0000
v  -13.0110 48.4784 31.4114
v  -31.4114 48.4784 -13.0110
v  -31.4114 48.4784 13.0110
v  -13.0110 48.4784 -31.4114
v  13.0110 48.4784 31.4114
v  13.0110 48.4784 -31.4114
v  31.4114 48.4784 13.0110
v  31.4114 48.4784 -13.0110
v  -53.5512 17.7411 53.5512
v  -69.3249 19.8311 28.7153
v  -69.5060 18.2763 28.7903
v  -53.5225 20.3663 53.5225
v  53.5512 17.7411 53.5512
v  28.7153 19.8311 69.3249
v  28.7903 18.2763 69.5060
v  53.5225 20.3663 53.5225
v  53.5512 17.7411 -53.5512
v  69.3249 19.8311 -28.7153
v  69.5060 18.2763 -28.7903
v  53.5225 20.3663 -53.5225
v  -0.0000 17.7411 -75.7328
v  28.7153 19.8311 -69.3249
v  28.7903 18.2763 -69.5060
v  -0.0000 20.3663 -75.6923
v  -53.5512 17.7411 -53.5512
v  -28.7153 19.8311 -69.3249
v  -28.7903 18.2763 -69.5060
v  -53.5225 20.3663 -53.5225
v  69.5060 18.2763 28.7903
v  69.3249 19.8311 28.7153
v  -69.5060 18.2763 -28.7903
v  -69.3249 19.8311 -28.7153
v  -75.6923 20.3663 -0.0000
v  -75.7328 17.7411 -0.0000
v  -28.7903 18.2763 69.5060
v  -28.7153 19.8311 69.3249
v  0.0000 20.3663 75.6923
v  0.0000 17.7411 75.7328
v  75.6923 20.3663 -0.0000
v  75.7328 17.7411 -0.0000
v  0.0000 -14.6698 37.8039
v  -26.7314 -14.6698 26.7314
v  -37.8039 -14.6698 -0.0000
v  -26.7314 -14.6698 -26.7314
v  -0.0000 -14.6698 -37.8039
v  26.7314 -14.6698 -26.7314
v  -54.8144 35.7607 0.0000
v  -38.7597 35.7607 -38.7597
v  -0.0000 35.7607 -54.8144
v  38.7597 35.7607 -38.7597
v  54.8144 35.7607 -0.0000
v  38.7597 35.7607 38.7597
v  0.0000 35.7607 54.8145
v  -38.7597 35.7607 38.7597
# 57 vertices

vn 0.6426 -0.7185 0.2662
vn 0.0000 1.0000 -0.0000
vn -0.8330 0.1230 0.5394
vn -0.8435 0.0151 0.5370
vn 0.5394 0.1230 0.8330
vn 0.5370 0.0151 0.8435
vn 0.8330 0.1230 -0.5394
vn 0.8435 0.0151 -0.5370
vn 0.2076 0.1230 -0.9704
vn 0.2167 0.0151 -0.9761
vn -0.5394 0.1230 -0.8330
vn -0.5370 0.0151 -0.8435
vn 0.8404 0.0151 0.5418
vn 0.8382 0.1233 0.5313
vn -0.2111 0.0151 -0.9773
vn -0.2170 0.1233 -0.9684
vn -0.8404 0.0151 -0.5418
vn -0.8382 0.1233 -0.5313
vn -0.9773 0.0151 0.2111
vn -0.9684 0.1233 0.2170
vn -0.5418 0.0151 0.8404
vn -0.5313 0.1233 0.8382
vn 0.2111 0.0151 0.9773
vn 0.2170 0.1233 0.9684
vn 0.9773 0.0151 -0.2111
vn 0.9684 0.1233 -0.2170
vn 0.5418 0.0151 -0.8404
vn 0.5313 0.1233 -0.8382
vn 0.9704 0.1230 0.2076
vn 0.9761 0.0151 0.2167
vn -0.2076 0.1230 0.9704
vn -0.2167 0.0151 0.9761
vn -0.9704 0.1230 -0.2076
vn -0.9761 0.0151 -0.2167
vn 0.2662 -0.7185 0.6426
vn -0.2662 -0.7185 0.6426
vn -0.6426 -0.7185 0.2662
vn -0.6426 -0.7185 -0.2662
vn -0.2662 -0.7185 -0.6426
vn 0.2662 -0.7185 -0.6426
vn 0.6426 -0.7185 -0.2662
vn -0.5620 -0.7513 -0.3459
vn -0.6420 -0.7513 -0.1528
vn -0.6420 -0.7513 0.1528
vn -0.5620 -0.7513 0.3459
vn -0.3459 -0.7513 0.5620
vn -0.1528 -0.7513 0.6420
vn 0.1528 -0.7513 0.6420
vn 0.3459 -0.7513 0.5620
vn 0.5620 -0.7513 0.3459
vn 0.6420 -0.7513 0.1528
vn 0.6420 -0.7513 -0.1528
vn 0.5620 -0.7513 -0.3459
vn 0.3459 -0.7513 -0.5620
vn 0.1528 -0.7513 -0.6420
vn -0.1528 -0.7513 -0.6420
vn -0.3459 -0.7513 -0.5620
vn -0.5847 -0.7743 -0.2422
vn -0.2422 -0.7743 0.5847
vn 0.5847 -0.7743 0.2422
vn 0.2422 -0.7743 -0.5847
vn -0.2422 -0.7743 -0.5847
vn 0.5847 -0.7743 -0.2422
vn -0.5872 0.7963 -0.1450
vn -0.5178 0.7963 -0.3126
vn -0.3126 0.7963 -0.5178
vn -0.1450 0.7963 -0.5872
vn 0.1450 0.7963 -0.5872
vn 0.3126 0.7963 -0.5178
vn 0.5178 0.7963 -0.3126
vn 0.5872 0.7963 -0.1450
vn 0.5872 0.7963 0.1450
vn 0.5178 0.7963 0.3126
vn 0.3126 0.7963 0.5178
vn 0.1450 0.7963 0.5872
vn -0.1450 0.7963 0.5872
vn -0.3126 0.7963 0.5178
vn -0.5178 0.7963 0.3126
vn -0.5872 0.7963 0.1450
vn -0.5051 0.8373 -0.2092
vn -0.5610 0.7946 -0.2324
vn -0.2092 0.8373 -0.5051
vn -0.2324 0.7946 -0.5610
vn 0.2092 0.8373 -0.5051
vn 0.2324 0.7946 -0.5610
vn 0.5051 0.8373 -0.2092
vn 0.5610 0.7946 -0.2324
vn 0.5051 0.8373 0.2092
vn 0.5610 0.7946 0.2324
vn 0.2092 0.8373 0.5051
vn 0.2324 0.7946 0.5610
vn -0.2092 0.8373 0.5051
vn -0.2324 0.7946 0.5610
vn -0.5051 0.8373 0.2092
vn -0.5610 0.7946 0.2324
vn 0.2422 -0.7743 0.5847
vn -0.5847 -0.7743 0.2422
vn 0.0000 0.8786 -0.4775
vn 0.3376 0.8786 -0.3376
vn 0.4775 0.8786 -0.0000
vn 0.3376 0.8786 0.3376
vn 0.0000 0.8786 0.4775
vn -0.3376 0.8786 0.3376
vn -0.4775 0.8786 -0.0000
vn -0.3376 0.8786 -0.3376
# 105 vertex normals

vt 0.3164 0.4259 0.0000
vt 0.5008 0.5010 0.0000
vt 0.4232 0.3176 0.0000
vt 0.4230 0.5770 0.0000
vt 0.5770 0.5770 0.0000
vt 0.5000 0.6089 0.0000
vt 0.6089 0.5000 0.0000
vt 0.3911 0.5000 0.0000
vt 0.5770 0.4230 0.0000
vt 0.4230 0.4230 0.0000
vt 0.5000 0.3911 0.0000
vt 0.3253 0.9304 0.0000
vt 0.4931 0.9874 0.0000
vt 0.5023 0.9907 0.0000
vt 0.3267 0.9185 0.0000
vt 0.0696 0.3254 0.0000
vt 0.0126 0.4931 0.0000
vt 0.0093 0.5023 0.0000
vt 0.0815 0.3267 0.0000
vt 0.6747 0.0696 0.0000
vt 0.5069 0.0126 0.0000
vt 0.4977 0.0094 0.0000
vt 0.6733 0.0815 0.0000
vt 0.9278 0.3192 0.0000
vt 0.8495 0.1603 0.0000
vt 0.8454 0.1515 0.0000
vt 0.9185 0.3267 0.0000
vt 0.9304 0.6747 0.0000
vt 0.9874 0.5069 0.0000
vt 0.9907 0.4977 0.0000
vt 0.9185 0.6733 0.0000
vt 0.1515 0.1547 0.0000
vt 0.1603 0.1505 0.0000
vt 0.8486 0.8454 0.0000
vt 0.8397 0.8495 0.0000
vt 0.6733 0.9185 0.0000
vt 0.6808 0.9278 0.0000
vt 0.1547 0.8486 0.0000
vt 0.1505 0.8397 0.0000
vt 0.0815 0.6733 0.0000
vt 0.0722 0.6808 0.0000
vt 0.3267 0.0815 0.0000
vt 0.3192 0.0722 0.0000
vt 0.3175 0.5779 0.0000
vt 0.4258 0.6846 0.0000
vt 0.5778 0.6835 0.0000
vt 0.6845 0.5753 0.0000
vt 0.6834 0.4233 0.0000
vt 0.5752 0.3166 0.0000
vt 0.6180 0.7850 0.0000
vt 0.7850 0.6180 0.0000
vt 0.7850 0.3820 0.0000
vt 0.6180 0.2150 0.0000
vt 0.3820 0.2150 0.0000
vt 0.2150 0.3820 0.0000
vt 0.2150 0.6180 0.0000
vt 0.3820 0.7850 0.0000
# 57 texture coords

g Object01
usemtl Standardmaterial
s off
f -57/-57/-105 -56/-56/-105 -55/-55/-105 
f -54/-54/-104 -53/-53/-104 -52/-52/-104 
f -53/-53/-104 -54/-54/-104 -51/-51/-104 
f -50/-50/-104 -51/-51/-104 -54/-54/-104 
f -51/-51/-104 -50/-50/-104 -49/-49/-104 
f -48/-48/-104 -49/-49/-104 -50/-50/-104 
f -49/-49/-104 -48/-48/-104 -47/-47/-104 
f -46/-46/-103 -45/-45/-103 -44/-44/-103 
f -45/-45/-102 -46/-46/-102 -43/-43/-102 
f -42/-42/-101 -41/-41/-101 -40/-40/-101 
f -41/-41/-100 -42/-42/-100 -39/-39/-100 
f -38/-38/-99 -37/-37/-99 -36/-36/-99 
f -37/-37/-98 -38/-38/-98 -35/-35/-98 
f -34/-34/-97 -33/-33/-97 -32/-32/-97 
f -33/-33/-96 -34/-34/-96 -31/-31/-96 
f -30/-30/-95 -29/-29/-95 -28/-28/-95 
f -29/-29/-94 -30/-30/-94 -27/-27/-94 
f -26/-26/-93 -39/-39/-93 -42/-42/-93 
f -39/-39/-92 -26/-26/-92 -25/-25/-92 
f -28/-28/-91 -31/-31/-91 -34/-34/-91 
f -31/-31/-90 -28/-28/-90 -29/-29/-90 
f -24/-24/-89 -27/-27/-89 -30/-30/-89 
f -27/-27/-88 -24/-24/-88 -23/-23/-88 
f -44/-44/-87 -22/-22/-87 -21/-21/-87 
f -22/-22/-86 -44/-44/-86 -45/-45/-86 
f -20/-20/-85 -43/-43/-85 -46/-46/-85 
f -43/-43/-84 -20/-20/-84 -19/-19/-84 
f -40/-40/-83 -18/-18/-83 -17/-17/-83 
f -18/-18/-82 -40/-40/-82 -41/-41/-82 
f -36/-36/-81 -16/-16/-81 -15/-15/-81 
f -16/-16/-80 -36/-36/-80 -37/-37/-80 
f -32/-32/-79 -35/-35/-79 -38/-38/-79 
f -35/-35/-78 -32/-32/-78 -33/-33/-78 
f -15/-15/-77 -25/-25/-77 -26/-26/-77 
f -25/-25/-76 -15/-15/-76 -16/-16/-76 
f -17/-17/-75 -19/-19/-75 -20/-20/-75 
f -19/-19/-74 -17/-17/-74 -18/-18/-74 
f -21/-21/-73 -23/-23/-73 -24/-24/-73 
f -23/-23/-72 -21/-21/-72 -22/-22/-72 
f -56/-56/-71 -57/-57/-71 -14/-14/-71 
f -13/-13/-70 -56/-56/-70 -14/-14/-70 
f -56/-56/-69 -13/-13/-69 -12/-12/-69 
f -11/-11/-68 -56/-56/-68 -12/-12/-68 
f -56/-56/-67 -11/-11/-67 -10/-10/-67 
f -9/-9/-66 -56/-56/-66 -10/-10/-66 
f -56/-56/-65 -9/-9/-65 -55/-55/-65 
f -24/-24/-64 -30/-30/-64 -11/-11/-64 
f -21/-21/-63 -24/-24/-63 -12/-12/-63 
f -44/-44/-62 -21/-21/-62 -12/-12/-62 
f -46/-46/-61 -44/-44/-61 -13/-13/-61 
f -20/-20/-60 -46/-46/-60 -13/-13/-60 
f -17/-17/-59 -20/-20/-59 -14/-14/-59 
f -40/-40/-58 -17/-17/-58 -14/-14/-58 
f -42/-42/-57 -40/-40/-57 -57/-57/-57 
f -26/-26/-56 -42/-42/-56 -57/-57/-56 
f -15/-15/-55 -26/-26/-55 -55/-55/-55 
f -36/-36/-54 -15/-15/-54 -55/-55/-54 
f -38/-38/-53 -36/-36/-53 -9/-9/-53 
f -32/-32/-52 -38/-38/-52 -9/-9/-52 
f -34/-34/-51 -32/-32/-51 -10/-10/-51 
f -28/-28/-50 -34/-34/-50 -10/-10/-50 
f -30/-30/-49 -28/-28/-49 -11/-11/-49 
f -24/-24/-48 -11/-11/-48 -12/-12/-48 
f -13/-13/-47 -14/-14/-47 -20/-20/-47 
f -26/-26/-46 -57/-57/-46 -55/-55/-46 
f -10/-10/-45 -32/-32/-45 -9/-9/-45 
f -28/-28/-44 -10/-10/-44 -11/-11/-44 
f -55/-55/-43 -9/-9/-43 -36/-36/-43 
f -23/-23/-42 -22/-22/-42 -8/-8/-42 
f -27/-27/-41 -23/-23/-41 -7/-7/-41 
f -29/-29/-40 -27/-27/-40 -7/-7/-40 
f -31/-31/-39 -29/-29/-39 -6/-6/-39 
f -33/-33/-38 -31/-31/-38 -6/-6/-38 
f -35/-35/-37 -33/-33/-37 -5/-5/-37 
f -37/-37/-36 -35/-35/-36 -5/-5/-36 
f -16/-16/-35 -37/-37/-35 -4/-4/-35 
f -25/-25/-34 -16/-16/-34 -4/-4/-34 
f -39/-39/-33 -25/-25/-33 -3/-3/-33 
f -41/-41/-32 -39/-39/-32 -3/-3/-32 
f -18/-18/-31 -41/-41/-31 -2/-2/-31 
f -19/-19/-30 -18/-18/-30 -2/-2/-30 
f -43/-43/-29 -19/-19/-29 -1/-1/-29 
f -45/-45/-28 -43/-43/-28 -1/-1/-28 
f -22/-22/-27 -45/-45/-27 -8/-8/-27 
f -23/-23/-26 -8/-8/-26 -7/-7/-26 
f -53/-53/-25 -7/-7/-25 -8/-8/-25 
f -29/-29/-24 -7/-7/-24 -6/-6/-24 
f -51/-51/-23 -6/-6/-23 -7/-7/-23 
f -33/-33/-22 -6/-6/-22 -5/-5/-22 
f -49/-49/-21 -5/-5/-21 -6/-6/-21 
f -37/-37/-20 -5/-5/-20 -4/-4/-20 
f -47/-47/-19 -4/-4/-19 -5/-5/-19 
f -25/-25/-18 -4/-4/-18 -3/-3/-18 
f -48/-48/-17 -3/-3/-17 -4/-4/-17 
f -41/-41/-16 -3/-3/-16 -2/-2/-16 
f -50/-50/-15 -2/-2/-15 -3/-3/-15 
f -19/-19/-14 -2/-2/-14 -1/-1/-14 
f -54/-54/-13 -1/-1/-13 -2/-2/-13 
f -45/-45/-12 -1/-1/-12 -8/-8/-12 
f -52/-52/-11 -8/-8/-11 -1/-1/-11 
f -14/-14/-10 -57/-57/-10 -40/-40/-10 
f -12/-12/-9 -13/-13/-9 -44/-44/-9 
f -49/-49/-8 -6/-6/-8 -51/-51/-8 
f -5/-5/-7 -49/-49/-7 -47/-47/-7 
f -48/-48/-6 -4/-4/-6 -47/-47/-6 
f -3/-3/-5 -48/-48/-5 -50/-50/-5 
f -54/-54/-4 -2/-2/-4 -50/-50/-4 
f -1/-1/-3 -54/-54/-3 -52/-52/-3 
f -53/-53/-2 -8/-8/-2 -52/-52/-2 
f -7/-7/-1 -53/-53/-1 -51/-51/-1 
# 110 faces

